HIERARCHY
ROOT hip
{
  OFFSET 0 0 0
  CHANNELS 6 Xposition Yposition Zposition Zrotation Yrotation Xrotation
  JOINT abdomen
  {
    OFFSET 0 20.6881 -0.73152
    CHANNELS 3 Zrotation Xrotation Yrotation
    JOINT chest
    {
      OFFSET 0 11.7043 -0.48768
      CHANNELS 3 Zrotation Xrotation Yrotation
      JOINT neck
      {
        OFFSET 0 22.1894 -2.19456
        CHANNELS 3 Zrotation Xrotation Yrotation
        JOINT head
        {
          OFFSET -0.24384 7.07133 1.2192
          CHANNELS 3 Zrotation Xrotation Yrotation
          JOINT leftEye
          {
            OFFSET 4.14528 8.04674 8.04672
            CHANNELS 3 Zrotation Xrotation Yrotation
            End Site
            {
              OFFSET 1 0 0
            }
          }
          JOINT rightEye
          {
            OFFSET -3.6576 8.04674 8.04672
            CHANNELS 3 Zrotation Xrotation Yrotation
            End Site
            {
              OFFSET 1 0 0
            }
          }
        }
      }
      JOINT rCollar
      {
        OFFSET -2.68224 19.2634 -4.8768
        CHANNELS 3 Zrotation Xrotation Yrotation
        JOINT rShldr
        {
          OFFSET -8.77824 -1.95073 1.46304
          CHANNELS 3 Zrotation Xrotation Yrotation
          JOINT rForeArm
          {
            OFFSET -28.1742 -1.7115 0.48768
            CHANNELS 3 Zrotation Xrotation Yrotation
            JOINT rHand
            {
              OFFSET -22.5879 0.773209 7.07136
              CHANNELS 3 Zrotation Xrotation Yrotation
              JOINT rThumb1
              {
                OFFSET -1.2192 -0.487915 3.41376
                CHANNELS 3 Zrotation Xrotation Yrotation
                JOINT rThumb2
                {
                  OFFSET -3.37035 -0.52449 3.41376
                  CHANNELS 3 Zrotation Xrotation Yrotation
                  End Site
                  {
                    OFFSET -1.78271 -1.18214 1.43049
                  }
                }
              }
              JOINT rIndex1
              {
                OFFSET -7.75947 0.938293 5.60832
                CHANNELS 3 Zrotation Xrotation Yrotation
                JOINT rIndex2
                {
                  OFFSET -2.54057 -0.884171 1.56538
                  CHANNELS 3 Zrotation Xrotation Yrotation
                  End Site
                  {
                    OFFSET -1.62519 -0.234802 1.16502
                  }
                }
              }
              JOINT rMid1
              {
                OFFSET -8.24714 1.18213 3.41376
                CHANNELS 3 Zrotation Xrotation Yrotation
                JOINT rMid2
                {
                  OFFSET -3.10165 -0.590103 1.0647
                  CHANNELS 3 Zrotation Xrotation Yrotation
                  End Site
                  {
                    OFFSET -2.48547 -0.328903 0.83742
                  }
                }
              }
              JOINT rRing1
              {
                OFFSET -8.82822 0.546677 1.51678
                CHANNELS 3 Zrotation Xrotation Yrotation
                JOINT rRing2
                {
                  OFFSET -2.60934 -0.819778 -0.0198488
                  CHANNELS 3 Zrotation Xrotation Yrotation
                  End Site
                  {
                    OFFSET -2.33842 -0.294052 0.168128
                  }
                }
              }
              JOINT rPinky1
              {
                OFFSET -8.27202 -0.0477905 -0.4584
                CHANNELS 3 Zrotation Xrotation Yrotation
                JOINT rPinky2
                {
                  OFFSET -1.82734 -0.647385 -0.700984
                  CHANNELS 3 Zrotation Xrotation Yrotation
                  End Site
                  {
                    OFFSET -1.69225 -0.51767 -0.607171
                  }
                }
              }
            }
          }
        }
      }
      JOINT lCollar
      {
        OFFSET 2.68224 19.2634 -4.8768
        CHANNELS 3 Zrotation Xrotation Yrotation
        JOINT lShldr
        {
          OFFSET 8.77824 -1.95073 1.46304
          CHANNELS 3 Zrotation Xrotation Yrotation
          JOINT lForeArm
          {
            OFFSET 28.1742 -1.7115 0.48768
            CHANNELS 3 Zrotation Xrotation Yrotation
            JOINT lHand
            {
              OFFSET 22.5879 0.773209 7.07136
              CHANNELS 3 Zrotation Xrotation Yrotation
              JOINT lThumb1
              {
                OFFSET 1.2192 -0.487915 3.41376
                CHANNELS 3 Zrotation Xrotation Yrotation
                JOINT lThumb2
                {
                  OFFSET 3.37035 -0.52449 3.41376
                  CHANNELS 3 Zrotation Xrotation Yrotation
                  End Site
                  {
                    OFFSET 1.78271 -1.18214 1.43049
                  }
                }
              }
              JOINT lIndex1
              {
                OFFSET 7.75947 0.938293 5.60832
                CHANNELS 3 Zrotation Xrotation Yrotation
                JOINT lIndex2
                {
                  OFFSET 2.54057 -0.884171 1.56538
                  CHANNELS 3 Zrotation Xrotation Yrotation
                  End Site
                  {
                    OFFSET 1.62519 -0.234802 1.16502
                  }
                }
              }
              JOINT lMid1
              {
                OFFSET 8.24714 1.18213 3.41376
                CHANNELS 3 Zrotation Xrotation Yrotation
                JOINT lMid2
                {
                  OFFSET 3.10165 -0.590103 1.0647
                  CHANNELS 3 Zrotation Xrotation Yrotation
                  End Site
                  {
                    OFFSET 2.48547 -0.328903 0.83742
                  }
                }
              }
              JOINT lRing1
              {
                OFFSET 8.82822 0.546677 1.51678
                CHANNELS 3 Zrotation Xrotation Yrotation
                JOINT lRing2
                {
                  OFFSET 2.60934 -0.819778 -0.0198488
                  CHANNELS 3 Zrotation Xrotation Yrotation
                  End Site
                  {
                    OFFSET 2.33842 -0.294052 0.168128
                  }
                }
              }
              JOINT lPinky1
              {
                OFFSET 8.27202 -0.0477905 -0.4584
                CHANNELS 3 Zrotation Xrotation Yrotation
                JOINT lPinky2
                {
                  OFFSET 1.82734 -0.647385 -0.700984
                  CHANNELS 3 Zrotation Xrotation Yrotation
                  End Site
                  {
                    OFFSET 1.69225 -0.51767 -0.607171
                  }
                }
              }
            }
          }
        }
      }
    }
  }
  JOINT rButtock
  {
    OFFSET -8.77824 4.35084 1.2192
    CHANNELS 3 Zrotation Xrotation Yrotation
    JOINT rThigh
    {
      OFFSET 0 -1.70687 -2.19456
      CHANNELS 3 Zrotation Xrotation Yrotation
      JOINT rShin
      {
        OFFSET 0 -36.8199 0.73152
        CHANNELS 3 Zrotation Xrotation Yrotation
        JOINT rFoot
        {
          OFFSET 0.73152 -45.1104 -5.12064
          CHANNELS 3 Zrotation Xrotation Yrotation
          End Site
          {
            OFFSET -1.1221 -3.69964 12.103
          }
        }
      }
    }
  }
  JOINT lButtock
  {
    OFFSET 8.77824 4.35084 1.2192
    CHANNELS 3 Zrotation Xrotation Yrotation
    JOINT lThigh
    {
      OFFSET 0 -1.70687 -2.19456
      CHANNELS 3 Zrotation Xrotation Yrotation
      JOINT lShin
      {
        OFFSET 0 -36.8199 0.73152
        CHANNELS 3 Zrotation Xrotation Yrotation
        JOINT lFoot
        {
          OFFSET -0.73152 -45.1104 -5.12064
          CHANNELS 3 Zrotation Xrotation Yrotation
          End Site
          {
            OFFSET 1.1221 -3.69964 12.103
          }
        }
      }
    }
  }
}
MOTION
Frames:	8
Frame Time:	0.00833333
1.4404 50.7195 -2.6389 -134.567052 -14.176453 -126.975762 162.610498 -2.45074 -88.163147 164.046303 -1.931358 -110.356367 -94.828732 -38.015033 -1.809267 140.128811 18.814567 -97.193622 -57.584708 19.375077 -34.511389 -44.355435 -19.192812 45.053564 -83.79389 -27.153007 -174.168599 117.818406 56.457806 40.957558 -10.048456 27.125336 67.396825 109.006655 54.931661 70.118907 -79.716083 73.158238 18.713517 54.621736 -18.435398 -173.236469 -63.849975 -14.588125 -131.206896 99.928766 20.384621 -43.336684 168.472834 48.831505 84.893027 72.667184 66.818167 65.265531 124.873576 -33.209633 -31.176041 126.869798 -13.390269 -21.368695 -116.102863 25.861007 158.733915 -122.119014 -13.344693 53.642387 -63.956097 5.62866 -85.174788 -149.846586 57.182106 73.736357 45.031635 -72.66406 -77.689055 25.476711 -35.525269 -153.366396 117.697457 62.87067 14.174058 -41.333934 -47.29136 -75.946648 14.719816 -43.348845 79.665076 -104.547883 -79.499635 166.911901 9.291743 -18.585549 -174.533947 -153.939649 -32.75759 -4.625466 -138.366413 -31.203093 -131.4004 -169.175103 19.618907 36.396956 -83.983637 45.263316 168.99992 -120.378355 8.632534 151.768661 12.843047 6.997861 -91.361883 118.746839 -32.669687 56.414793 -84.790083 -3.397331 85.477883 -51.318334 -21.060353 -83.569104 149.827274 -85.86126 -120.196987 121.190116 6.705967 9.083839 138.049368 -13.402397 -5.027509 74.918787 30.364836 -49.920862
1.4091 50.671 -2.6196 -134.554382 -14.189566 -127.043682 160.28603 -0.193783 -0.924908 -176.411604 -13.723692 -22.64434 -99.569447 -36.077324 -28.838092 154.098879 32.815812 -119.187307 -57.572654 19.37881 -34.525856 -44.348178 -19.189186 45.053105 68.234719 32.540803 -10.595837 -43.285149 59.154756 -85.063187 10.671279 -10.092593 -93.573211 71.606745 -20.163887 -102.712917 -166.908054 59.483899 105.086867 161.425418 -9.302814 -79.131733 -86.063477 -8.609311 -142.484571 -91.717631 16.914105 173.077406 89.008582 -29.627532 132.53285 -129.548496 -58.710932 -16.26094 147.771104 67.014222 3.707763 82.67933 18.985882 98.798578 -137.302955 -6.137373 175.644107 -169.11283 -79.605379 -32.786663 -86.656163 6.063785 -77.839906 -129.565363 35.95975 76.037483 -17.46983 -18.260578 -131.286224 32.829412 1.22282 -172.605538 92.0312 -8.282872 38.197574 -31.325188 8.154744 -41.138724 66.530054 -54.192817 130.673981 -26.656749 -57.005808 -131.584968 13.020277 84.593579 -151.577743 165.039771 32.291263 96.833836 80.273962 12.760105 -64.636018 132.851009 8.593226 -18.906472 -84.260285 46.206369 169.523404 -173.923473 -62.427753 92.816562 116.860361 -3.001223 83.529833 -120.68239 -33.715467 180.0 93.219828 -28.434442 -178.835466 -31.502785 -44.875788 -9.967354 -85.366721 11.823757 172.730497 -70.391434 -32.331228 -148.050059 172.088236 48.046365 139.333303 -78.659682 21.347302 129.309957
1.3789 50.62520000000001 -2.6021 -134.536709 -14.217753 -127.11471 162.682046 -2.774195 -93.119089 163.785527 -0.540465 -114.938441 -96.658783 -19.003986 -145.965111 -127.566416 -5.080889 122.458284 -57.572849 19.373573 -34.51678 -44.339837 -19.18756 45.058049 68.318264 37.436441 -9.557882 82.004545 -28.463583 -134.522821 -33.357843 42.042536 86.068036 92.882785 58.06889 94.597098 -19.843907 -15.666086 -37.795875 91.057631 -16.135055 -114.756433 -70.852809 -13.247904 -134.923557 -21.615583 -64.012555 -155.946064 -139.953127 42.948569 39.917765 -30.209758 -1.512557 168.784024 141.06148 5.353259 -13.390235 136.026296 -10.416853 17.829871 24.363326 -43.851501 39.769876 131.126269 -46.326514 -6.362885 -63.981766 5.741684 -85.249609 -142.318119 55.58797 67.772752 -5.88508 -55.805901 -125.8734 27.94475 -15.618326 -163.469959 -99.528636 0.377219 -126.572591 171.9884 -15.673918 -157.80595 105.82632 -38.977899 169.247202 -12.135242 -23.433321 -131.88439 -1.081949 -44.763412 174.816007 -0.674048 2.149233 -122.852989 -174.069311 -2.257759 -127.600881 63.081272 52.902794 95.859757 144.209155 -36.794487 1.819012 -96.440282 -54.4689 -21.59619 56.774318 -48.338609 -10.58014 -0.382581 -82.573055 179.193846 92.009407 18.796002 179.74039 41.237772 -41.82516 26.319206 -32.785052 -24.317423 122.592472 38.587193 -47.540471 -180.0 -144.497082 9.090424 -94.996985 39.745789 -4.399314 -77.427063
1.3497000000000001 50.5821 -2.5861 -134.513816 -14.237418 -127.152527 160.383782 -0.291516 -0.954766 -176.451269 -13.688621 -22.458912 -99.379758 -36.031036 -27.458611 153.162618 32.21716 -117.851205 -57.557388 19.360186 -34.504288 -44.340517 -19.191129 45.065046 67.833728 22.104123 -12.689492 -133.315481 -11.511491 -29.551627 105.710861 -17.759354 169.554739 128.387284 6.415885 -7.527042 -5.821739 -75.50943 -33.447136 27.93599 13.433365 -156.032595 158.525023 46.942861 -135.501853 177.902876 -57.880109 -157.335005 -135.246958 40.600502 36.007201 158.226882 79.907581 -36.882904 129.016722 -26.683665 -26.829634 123.596326 -31.756198 -18.378713 6.3018 -2.834293 47.474734 3.805494 24.044476 161.270309 -113.042766 3.090606 -69.778554 -120.910912 24.105885 96.45102 18.006011 -39.425485 -112.430072 25.41394 -40.135771 -150.85642 -85.057436 -78.659371 -125.105858 -17.226883 18.432493 34.714614 66.530815 -54.155245 130.685013 -172.564798 61.398246 -6.660309 11.488608 85.289945 -149.948283 36.899945 2.148774 135.124087 -119.286329 -43.334358 -125.809165 -132.070956 -34.209187 34.98329 145.510441 -39.207233 3.476981 -88.660147 1.802814 -32.242663 13.045423 0.820061 -86.46534 115.239794 -38.770131 -180.0 79.363372 58.514757 -45.761335 -56.767989 13.472711 -104.036095 -88.949641 12.210817 176.340812 -75.615061 -27.803942 30.366796 -175.612484 -39.83213 -100.306536 -82.088504 -25.901985 133.771866
1.3195999999999999 50.5409 -2.566 -134.511578 -14.255369 -127.233253 162.761258 -2.86664 -92.831406 163.837905 -0.590824 -114.465982 -89.09545 -18.449341 174.55735 -131.25112 -37.237249 93.149473 -57.553795 19.345866 -34.482228 -44.341487 -19.194355 45.071012 67.948383 49.743421 -6.570334 81.558492 -26.676893 -125.759274 161.379433 -49.326688 66.444179 75.879635 -21.737388 -96.204005 -7.418056 -73.026099 -34.689282 162.448801 25.346148 -95.85733 98.897807 45.15395 -103.220271 31.338404 -80.276752 75.266865 14.435006 -70.136184 80.161049 30.888557 47.877975 -153.84569 71.320423 -57.628022 -85.889228 126.576196 -15.27898 -61.260313 87.984456 -81.362053 85.235573 42.906973 -27.567766 -121.282821 88.210398 -30.788033 -84.857346 109.846174 13.110094 -70.657259 97.223616 58.687941 124.307194 29.930177 -59.932906 -136.188751 -87.036158 -75.726325 -126.712172 58.333241 -55.906901 140.504961 130.359677 1.349536 -167.718844 -97.037976 85.634723 -28.638963 6.955069 -26.653991 -176.919048 -24.467391 46.526719 -104.788379 -171.54753 -4.258978 -128.473855 -170.808255 -18.12659 55.822731 -84.667468 47.336251 170.22489 123.724731 -58.130448 28.852679 65.172132 55.443883 -180.0 174.830075 -4.766919 -0.533429 -84.927833 -16.708625 99.841305 -56.74636 -21.540285 -95.316422 -85.171378 11.890954 172.730022 -70.673407 -32.717466 -180.0 -156.973806 44.089145 103.089327 66.594745 -12.393149 -149.027725
1.287 50.5035 -2.5414 -134.522681 -14.258616 -127.290783 160.426813 -0.395003 -0.989283 -176.484129 -13.656651 -22.377828 -90.929937 -18.040259 -175.84594 -128.525578 -29.674086 101.25954 -57.522167 19.332682 -34.48091 -44.354548 -19.200519 45.071055 -67.558556 -54.78656 -156.455414 6.454242 10.98758 144.58792 -58.05011 -11.33374 27.058783 55.889906 48.908136 152.540738 10.997865 -83.739666 -17.787321 3.907501 29.20767 -160.320433 -52.8114 -15.892664 -124.980389 69.280194 79.336193 3.880054 -118.874427 28.567811 23.325882 4.604072 -49.257313 -148.793348 -4.712332 1.688818 -164.489799 133.189192 -54.354484 -122.863507 121.781956 -82.205157 117.112386 -150.221845 66.932774 -6.445495 118.997698 -30.478557 -74.786739 -87.467305 -30.88196 -134.803462 -0.635131 -45.710714 -121.919234 27.050111 -19.933554 -161.322808 173.569213 75.700506 -41.410563 -69.590618 -59.496298 -93.792451 147.18752 60.509184 -157.825283 -77.376636 -36.926826 109.075812 -84.969534 -69.502893 90.578068 164.756432 21.639974 -22.292027 30.980858 -22.743336 -48.632709 130.207218 -38.852188 -50.979204 -82.4019 35.672487 164.818629 -155.619553 -46.32167 105.503256 116.946889 -2.918012 83.487091 -120.795211 -33.654368 180.0 100.435279 -35.308499 95.293178 55.164186 1.979995 92.273236 -92.622596 12.375593 -180.0 -79.078001 -25.071143 15.490525 172.570903 -43.089151 -84.35461 -70.971777 -6.319617 135.122035
1.2555 50.4707 -2.5161 -134.539052 -14.253794 -127.336738 162.747724 -2.473468 -82.088392 164.671762 -3.496311 -104.080242 -99.138258 -36.060076 -25.97086 152.286402 31.601689 -116.56613 -57.511571 19.29907 -34.430526 -44.363027 -19.205448 45.073077 -85.165813 -22.017798 -175.886711 124.327608 54.516917 32.275262 96.497344 -11.036923 49.842087 119.444629 -9.229046 -28.950113 -160.918766 63.655077 99.166785 127.789478 -31.075893 -110.00889 179.334582 41.814203 -145.547091 -51.719758 6.112352 -69.204443 -139.058354 42.450132 39.10629 -49.504628 87.326211 173.435212 -12.140758 42.636822 -175.155443 84.62905 0.489769 162.012344 -63.650708 45.629229 109.998058 -20.680577 -38.853918 124.291967 1.403918 -9.640383 -99.576221 -80.507029 14.823384 -32.595673 1.22124 -24.231302 -122.306652 26.564234 -22.619498 -160.001803 131.668668 69.848269 0.242711 -25.414461 -59.123977 -68.174776 -29.336877 49.829245 41.72891 -177.138044 -10.106918 115.468916 11.689347 85.295844 -150.221143 7.174323 -10.993611 128.661384 80.052617 12.74112 -64.669266 128.697667 -1.739089 -17.383687 -81.68601 11.941119 156.584287 -50.950808 53.704588 106.78362 116.0002 -8.849229 78.700587 -117.403918 -35.86696 49.675227 -76.978144 81.366593 15.113079 -116.222588 18.689255 -12.643519 -32.731515 -24.222107 122.549941 37.876602 -45.498017 47.480681 164.26056 -32.224362 114.083304 -93.433993 1.290248 57.076768
1.2275 50.441 -2.4894 -134.554499 -14.252232 -127.369586 162.727813 -2.479497 -82.07896 164.676059 -3.508344 -104.139139 -94.21959 -37.842129 1.47484 138.995383 16.937515 -95.018363 -57.521759 19.24274 -34.32733 -44.367348 -19.204735 45.067169 68.24435 30.804328 -11.024435 -99.303188 39.441026 -42.281817 167.517167 -26.998943 -127.316965 126.096268 42.381597 37.430049 -158.790372 64.979932 97.081927 133.204231 -29.212833 -104.121653 -9.469016 -9.458932 -101.729877 22.63368 43.103567 72.618644 -89.084986 -15.287752 9.299133 82.387825 -21.157598 -101.202203 124.628671 -33.30998 -31.433682 -33.365326 -3.696281 -168.333805 -74.180072 45.113269 119.939492 141.285602 12.72038 107.376947 -177.097028 -15.99295 -61.479452 59.989442 12.536675 21.093271 -164.303884 3.639398 50.927268 36.548583 10.149137 -178.310167 137.800558 71.596442 -5.885784 163.04116 6.772023 -40.323826 52.537807 -54.341967 116.926181 -5.663013 -83.397261 -109.839198 12.322164 -3.598174 -171.163861 -151.699871 -68.323027 2.327772 -117.743214 -44.212238 -125.020564 93.127818 76.711056 113.659909 166.82469 73.880792 -69.789604 50.246471 -28.123201 -57.462949 116.928255 -2.900556 83.478358 -119.686259 -31.81812 -55.880573 -91.999963 -28.340287 8.30614 -21.296747 -44.377556 -14.099849 151.814872 -85.932419 -118.43186 121.849879 7.109296 9.483485 132.231336 -8.854261 -100.078629 25.237105 -42.100749 169.566687
